<?xml version="1.0" encoding="UTF-8" ?>
<!DOCTYPE svg PUBLIC "-//W3C//DTD SVG 1.1//EN" "http://www.w3.org/Graphics/SVG/1.1/DTD/svg11.dtd">
<svg width="352pt" height="161pt" viewBox="0 0 352 161" version="1.1" xmlns="http://www.w3.org/2000/svg">
<g id="#ffffffff">
</g>
<g id="#db3f28ff">
<path fill="#db3f28" opacity="1.00" d=" M 142.77 3.90 C 158.27 0.68 174.19 0.21 189.97 0.72 C 202.85 1.64 215.85 2.32 228.42 5.52 C 241.99 8.96 255.06 15.09 265.68 24.30 C 269.36 27.39 272.55 31.17 274.32 35.68 C 277.92 44.09 275.79 54.16 270.16 61.16 C 265.96 66.32 260.85 70.83 255.05 74.10 C 244.35 79.73 232.76 83.47 220.95 85.94 C 202.27 90.22 183.03 92.19 163.87 91.66 C 164.89 88.11 167.15 85.15 169.03 82.03 C 174.26 73.34 180.21 65.11 185.64 56.55 C 196.65 40.51 209.25 25.67 221.05 10.22 C 211.51 16.76 203.65 25.37 195.42 33.41 C 188.36 41.02 180.82 48.22 174.36 56.36 C 165.61 67.71 156.84 79.06 148.48 90.69 C 141.36 90.13 134.23 88.94 127.31 87.19 C 132.11 79.28 139.02 73.00 145.33 66.32 C 150.75 60.75 156.53 55.54 162.12 50.14 C 174.93 38.76 188.83 28.70 202.78 18.78 C 206.84 15.87 211.20 13.33 214.99 10.06 C 203.45 15.05 192.55 21.42 181.58 27.55 C 166.91 35.67 153.46 45.82 140.69 56.63 C 130.72 64.63 121.43 73.42 112.27 82.31 C 111.05 83.58 109.23 82.54 107.83 82.23 C 96.87 78.36 86.96 71.27 80.13 61.83 C 75.44 55.63 75.12 46.89 77.96 39.85 C 82.77 29.55 92.02 22.05 101.89 16.82 C 114.73 10.40 128.76 6.76 142.77 3.90 M 157.98 5.96 C 143.45 8.08 128.99 11.23 115.17 16.25 C 105.53 19.85 96.11 26.15 91.92 35.90 C 89.62 40.71 90.28 46.52 92.88 51.07 C 94.72 54.87 98.60 57.96 103.01 57.47 C 107.69 56.72 111.80 54.09 115.98 52.00 C 122.81 47.98 130.08 44.80 137.10 41.13 C 159.72 29.99 182.51 19.07 206.17 10.26 C 208.55 9.40 211.10 8.80 213.13 7.20 C 194.91 4.39 176.33 4.68 157.98 5.96 M 205.67 44.68 C 202.29 51.60 198.26 58.20 195.26 65.30 C 194.35 68.12 192.86 71.52 194.77 74.26 C 196.77 75.98 199.57 75.65 201.99 75.33 C 211.21 73.96 220.14 71.16 228.87 67.94 C 237.56 64.71 245.64 59.76 252.34 53.34 C 256.34 49.64 258.63 44.36 259.25 39.00 C 259.46 32.65 255.72 26.88 250.77 23.18 C 243.21 17.27 234.34 12.92 225.08 10.47 C 217.66 21.30 211.95 33.17 205.67 44.68 Z" />
</g>
<g id="#6f6f71ff">
<path fill="#6f6f71" opacity="1.00" d=" M 0.75 122.86 C 1.24 119.41 2.62 114.43 6.98 114.59 C 11.01 114.73 15.59 113.58 19.23 115.69 C 20.42 118.27 19.56 121.38 20.01 124.16 C 22.26 121.24 22.58 116.61 26.16 114.94 C 30.67 114.24 35.37 114.29 39.88 114.96 C 44.07 116.00 45.29 120.52 46.42 124.10 C 47.85 121.86 48.81 119.37 50.07 117.04 C 51.53 114.17 55.30 114.67 57.99 114.54 C 61.73 114.87 66.25 113.91 69.20 116.82 C 72.35 119.59 72.45 124.14 72.49 128.02 C 72.35 137.67 72.63 147.32 72.35 156.97 C 72.36 161.40 66.88 159.82 64.02 160.31 C 61.40 160.03 56.87 161.30 56.00 157.85 C 55.16 148.73 56.28 139.50 55.49 130.38 C 54.58 126.36 49.33 127.79 46.31 127.28 C 46.20 136.54 46.35 145.80 46.26 155.06 C 46.19 156.68 46.21 158.77 44.63 159.73 C 40.28 160.99 35.62 160.72 31.20 159.96 C 30.01 159.02 29.51 157.50 29.57 156.02 C 29.37 148.56 29.83 141.08 29.40 133.63 C 29.11 131.62 29.26 128.95 27.19 127.84 C 24.88 127.16 22.42 127.46 20.05 127.29 C 19.34 137.17 20.03 147.09 19.71 156.98 C 19.64 158.15 19.60 160.02 17.91 159.87 C 13.39 160.33 8.83 160.19 4.33 159.63 C 2.96 148.83 4.05 137.86 3.89 127.00 C 3.91 125.05 1.89 124.12 0.75 122.86 Z" />
<path fill="#6f6f71" opacity="1.00" d=" M 120.46 123.01 C 121.80 120.15 122.34 115.64 126.09 115.05 C 130.56 114.42 135.17 114.46 139.58 115.46 C 140.50 121.60 140.11 127.84 140.26 134.03 C 141.64 131.91 142.43 129.13 144.70 127.77 C 148.32 126.82 152.15 127.22 155.85 127.35 C 159.68 127.45 162.17 131.38 162.00 134.94 C 161.93 143.25 162.26 151.58 161.74 159.88 C 157.29 160.19 152.82 160.27 148.37 159.84 C 147.94 152.94 148.72 146.00 147.95 139.14 C 147.66 136.12 143.47 135.91 141.40 137.27 C 140.04 138.81 140.07 140.99 139.99 142.93 C 139.89 148.57 140.25 154.22 139.76 159.84 C 134.97 160.59 130.03 161.01 125.25 159.92 C 123.65 158.92 124.14 156.66 123.95 155.07 C 124.11 146.03 124.46 136.99 124.20 127.95 C 124.52 125.47 122.03 124.35 120.46 123.01 Z" />
<path fill="#6f6f71" opacity="1.00" d=" M 170.31 115.38 C 174.82 114.41 179.47 114.60 184.02 115.26 C 184.63 118.10 184.53 121.02 183.92 123.86 C 179.31 124.53 174.62 124.44 170.01 123.80 C 169.36 121.00 169.55 118.13 170.31 115.38 Z" />
<path fill="#6f6f71" opacity="1.00" d=" M 256.24 122.98 C 257.30 119.99 258.28 115.50 262.08 115.16 C 265.94 114.86 269.88 114.70 273.70 115.38 C 276.86 116.42 275.80 120.45 276.05 122.99 C 275.59 135.29 275.80 147.60 275.67 159.91 C 270.47 159.96 265.26 160.10 260.06 159.94 C 259.78 157.29 259.69 154.64 259.66 151.98 C 258.69 154.18 257.86 156.47 256.50 158.46 C 255.05 160.57 252.18 159.93 250.00 160.21 C 246.11 160.13 241.31 160.87 238.56 157.43 C 234.10 152.38 235.92 145.12 235.51 139.00 C 234.99 134.41 237.62 129.59 242.11 128.12 C 247.95 126.31 254.19 127.82 260.19 127.08 C 258.91 125.69 257.30 124.56 256.24 122.98 M 256.75 135.74 C 254.73 136.49 251.71 136.64 251.09 139.16 C 250.26 142.07 250.14 145.55 251.90 148.15 C 253.70 150.61 257.10 149.40 259.69 149.69 C 259.72 142.39 259.81 135.08 259.66 127.78 C 258.40 130.32 257.67 133.07 256.75 135.74 Z" />
<path fill="#6f6f71" opacity="1.00" d=" M 79.05 135.59 C 79.87 132.53 80.70 128.23 84.12 127.18 C 92.41 126.58 100.74 127.28 109.04 127.29 C 112.84 127.03 116.78 130.03 116.65 134.02 C 116.74 142.46 116.71 150.94 116.31 159.36 C 112.25 161.04 107.38 159.92 103.02 159.84 C 102.31 155.68 102.58 151.45 102.60 147.26 C 100.90 146.51 99.09 145.71 97.19 146.21 C 95.22 146.33 94.08 149.03 95.30 150.57 C 97.45 151.70 99.97 151.58 102.31 152.03 C 101.43 154.93 99.75 157.57 97.62 159.70 C 93.00 160.26 88.02 161.08 83.54 159.45 C 76.30 154.80 78.21 140.72 87.10 139.17 C 92.05 138.72 97.05 139.22 102.01 138.75 C 102.07 138.09 102.18 136.77 102.24 136.12 C 94.51 135.89 86.77 136.15 79.05 135.59 Z" />
<path fill="#6f6f71" opacity="1.00" d=" M 170.39 127.50 C 174.22 127.12 178.33 126.73 182.03 128.00 C 186.41 130.35 184.70 135.99 185.01 140.00 C 184.49 146.67 186.13 153.65 184.04 160.09 C 180.14 160.02 176.19 160.49 172.32 159.82 C 170.88 159.25 171.58 157.23 171.27 156.03 C 171.07 150.39 171.70 144.70 170.97 139.09 C 170.76 137.15 168.69 136.52 167.32 135.54 C 167.93 132.79 167.94 129.36 170.39 127.50 Z" />
<path fill="#6f6f71" opacity="1.00" d=" M 191.35 128.39 C 192.35 126.85 194.40 127.40 195.95 127.20 C 198.83 127.32 202.04 126.82 204.61 128.40 C 206.83 129.82 206.79 132.72 207.41 135.00 C 208.83 132.64 209.72 129.74 212.00 128.05 C 215.81 126.68 220.01 127.36 223.98 127.45 C 227.89 127.33 229.71 131.71 229.68 135.03 C 229.81 143.31 229.79 151.59 229.64 159.87 C 225.17 160.02 220.70 160.01 216.23 159.90 C 215.59 153.03 216.41 146.11 215.80 139.25 C 214.55 135.56 209.77 136.73 206.79 136.62 C 206.61 143.09 206.79 149.56 206.76 156.03 C 206.46 157.24 207.14 159.27 205.69 159.85 C 202.19 160.12 198.66 160.00 195.16 159.94 C 193.35 160.28 193.17 158.24 193.06 156.99 C 192.69 151.04 193.37 145.05 192.80 139.11 C 192.67 137.19 190.54 136.60 189.25 135.61 C 189.70 133.16 189.87 130.49 191.35 128.39 Z" />
<path fill="#6f6f71" opacity="1.00" d=" M 314.52 136.08 C 315.11 132.79 315.91 127.58 320.20 127.53 C 328.05 127.33 335.92 127.36 343.77 127.52 C 347.52 127.43 350.65 129.90 352.00 133.29 L 352.00 161.00 L 338.80 161.00 C 336.97 156.58 337.85 151.73 337.48 147.09 C 335.02 146.54 331.98 146.01 330.12 148.21 C 328.91 152.55 334.68 151.29 336.89 153.15 C 336.64 156.31 334.05 158.81 331.96 161.00 L 320.28 161.00 C 311.74 157.33 312.52 142.06 321.66 139.76 C 326.83 139.02 332.09 139.73 337.29 139.17 C 337.20 138.47 337.02 137.06 336.93 136.35 C 329.46 136.37 321.97 136.78 314.52 136.08 Z" />
<path fill="#6f6f71" opacity="1.00" d=" M 279.25 134.11 C 279.62 131.88 280.03 129.12 282.18 127.89 C 285.68 127.23 289.35 127.28 292.85 127.92 C 295.33 128.32 296.13 131.02 297.36 132.83 C 298.69 131.02 299.57 128.29 302.08 127.86 C 305.78 127.16 309.56 127.71 313.27 128.04 C 312.25 130.84 311.61 134.43 308.80 136.00 C 304.92 136.89 300.89 136.29 296.95 136.22 C 296.58 142.49 296.55 148.78 296.61 155.06 C 296.72 157.13 296.05 159.11 295.26 161.00 L 291.52 161.00 C 288.74 160.83 285.98 160.50 283.25 160.02 C 282.30 152.87 283.02 145.65 282.55 138.47 C 281.39 137.12 278.86 136.24 279.25 134.11 Z" />
</g>
</svg>
