<?xml version="1.0" encoding="UTF-8" standalone="no"?>
<!-- Created with Inkscape (http://www.inkscape.org/) -->
<svg
   xmlns:svg="http://www.w3.org/2000/svg"
   xmlns="http://www.w3.org/2000/svg"
   version="1.0"
   width="1132.4409"
   height="263.62204"
   id="svg2">
  <defs
     id="defs4" />
  <g
     transform="translate(127.71875,-322.46875)"
     id="layer1">
    <g
       transform="translate(35.441214,35.482895)"
       id="g3252">
      <path
         d="M -127.71875,322.46875 L -127.71875,515.125 L 244.1875,515.125 L 244.1875,322.46875 L -127.71875,322.46875 z"
         id="path2410"
         style="fill:#000000;fill-opacity:1;stroke:none;stroke-width:9.84908581;stroke-linecap:butt;stroke-linejoin:miter;stroke-miterlimit:2.61299992;stroke-dasharray:none;stroke-opacity:1" />
      <path
         d="M 287.46399,483.27086 C 287.72663,502.96904 306.24291,514.43337 341.50264,514.43337 C 384.22144,514.43337 404.14284,504.63681 404.14284,481.35358 C 404.14284,454.22263 359.87447,452.17402 341.24,449.56073 C 331.98186,448.26065 327.47754,447.11815 327.47754,443.0078 C 327.47754,439.39647 331.98186,435.74574 340.47833,435.74574 C 351.6669,435.74574 358.53499,439.92175 359.42798,445.69989 L 401.51644,445.69989 C 399.97994,424.99054 379.84841,414.61617 342.01479,414.61617 C 312.23116,414.61617 289.57826,424.85922 289.57826,446.09385 C 289.57826,461.6554 299.76878,471.97725 322.08024,474.30163 L 348.96168,477.09877 C 369.18514,479.21304 369.23766,493.01489 349.18493,493.01489 C 339.28331,493.01489 332.80918,488.16914 332.16571,483.27086 L 287.46399,483.27086 z M 684.40844,418.68713 L 650.21234,418.68713 L 650.21234,459.08151 C 650.21234,501.41945 645.47164,512.17465 705.15714,514.18386 C 763.60814,516.78402 759.97064,491.62289 759.97064,459.08151 L 759.97064,418.68713 L 725.76144,418.68713 L 725.76144,464.11111 C 725.76144,481.60309 724.27754,491.66229 705.15714,491.96432 C 681.70324,491.66229 684.40844,481.60309 684.40844,464.11111 L 684.40844,418.68713 z M 897.80524,511.5837 L 933.83974,511.5837 L 933.83974,418.68713 L 897.80524,418.68713 L 897.80524,511.5837 z M 769.38634,511.5837 L 805.40774,511.5837 L 804.69854,478.29379 L 840.71994,511.5837 L 888.06124,511.5837 L 836.63584,464.16364 L 890.76644,418.68713 L 845.77584,418.68713 L 805.40774,450.84767 L 805.40774,418.68713 L 769.38634,418.68713 L 769.38634,511.5837 z M 529.25244,511.5837 L 639.89054,511.5837 L 639.89054,488.95707 L 583.86894,488.95707 L 639.86424,439.79043 L 639.86424,418.68713 L 532.45674,418.68713 L 532.45674,440.145 L 587.32264,440.145 L 529.25244,492.81791 L 529.25244,511.5837 z M 446.58584,418.68713 L 412.38984,418.68713 L 412.38984,459.08151 C 412.38984,501.41945 407.64914,512.17465 467.33454,514.18386 C 525.78564,516.78402 522.14804,491.62289 522.14804,459.08151 L 522.14804,418.68713 L 487.93884,418.68713 L 487.93884,464.11111 C 487.93884,481.60309 486.45494,491.66229 467.33454,491.96432 C 443.88064,491.66229 446.58584,481.60309 446.58584,464.11111 L 446.58584,418.68713"
         id="path2404"
         style="fill:#000000;fill-opacity:1;fill-rule:evenodd;stroke:none" />
      <path
         d="M 318.11434,398.46367 L 316.44656,343.97853 L 346.78175,398.46367 L 374.34606,398.46367 L 403.59124,343.57143 L 401.92354,398.46367 L 433.00724,398.46367 L 433.00724,325.84308 L 381.70004,325.84308 L 360.13711,371.88427 L 337.33976,325.84308 L 287.46399,325.84308 L 287.46399,398.46367 L 318.11434,398.46367 z M 685.09124,325.84308 L 685.09124,373.23688 C 685.09124,391.29354 695.41314,398.54246 724.35634,398.54246 L 750.39724,398.54246 C 774.52094,398.54246 787.66624,391.79256 787.66624,374.03794 L 787.66624,325.84308 L 755.92594,325.84308 L 755.92594,369.46796 C 755.92594,379.60595 751.61854,381.69396 738.86724,381.69396 L 735.43984,381.69396 C 720.10154,381.69396 717.02854,380.02618 717.02854,369.46796 L 717.02854,325.84308 L 685.09124,325.84308 z M 859.65644,398.46367 L 859.65644,342.07437 L 891.30484,342.07437 L 891.30484,325.84308 L 798.17194,325.84308 L 798.17194,342.07437 L 828.61214,342.07437 L 828.61214,398.46367 L 859.65644,398.46367 z M 473.83494,398.46367 L 479.73124,385.98816 L 521.97724,385.98816 L 527.91304,398.46367 L 560.12604,398.46367 L 524.80074,325.84308 L 475.85734,325.84308 L 440.76834,398.46367 L 473.83494,398.46367 z M 486.10034,371.55597 L 500.69014,340.70863 L 515.45064,371.55597 L 486.10034,371.55597 z M 632.74664,325.65923 L 567.95284,325.65923 L 567.95284,398.46367 L 599.56184,398.46367 L 599.56184,379.31705 L 622.49044,379.31705 C 631.51224,379.31705 636.02974,381.02422 636.02974,387.19632 L 636.02974,398.46367 L 668.91254,398.46367 L 668.91254,383.58498 C 668.91254,374.82586 658.73514,370.63672 648.64964,369.87506 C 659.89074,367.68199 670.25194,364.81919 670.02874,350.46579 C 669.71354,331.08279 659.91704,325.65923 632.74664,325.65923 z M 627.80904,342.56026 C 634.84784,342.56026 637.09344,346.56555 637.09344,352.15983 C 637.09344,359.04106 635.45184,361.98266 627.80904,361.98266 L 599.56184,361.98266 L 599.56184,342.56026 L 627.80904,342.56026 z M 902.16514,325.84308 L 933.82664,325.84308 L 933.82664,398.46367 L 902.16514,398.46367 L 902.16514,325.84308 z"
         id="path2408"
         style="fill:#000000;fill-opacity:1;fill-rule:evenodd;stroke:none" />
      <path
         d="M -122.8125,327.40625 L -122.8125,510.03125 L 56.6875,510.03125 L 56.6875,327.40625 L -122.8125,327.40625 z M 59.71875,327.40625 L 59.71875,510.03125 L 239.28125,510.03125 L 239.28125,327.40625 L 59.71875,327.40625 z"
         id="path2412"
         style="fill:#ffffff;fill-opacity:1;fill-rule:evenodd;stroke:none" />
      <path
         d="M 50.534383,460.9594 L 12.832083,500.22442 L 37.415403,500.22442 C 45.517913,500.1719 50.508123,494.42003 50.534383,486.02861 L 50.534383,460.9594 z M 49.286833,379.69788 L 49.286833,408.12891 C 49.299963,413.47368 47.737243,418.12245 43.902663,421.74691 L 11.532003,454.40648 C 9.4833929,456.53388 8.6035429,459.08151 9.6541129,461.45842 L 49.759593,421.05091 L 49.759593,444.78064 C 49.825253,451.5962 48.328193,458.03094 44.362293,462.86356 L 8.7217329,500.21129 L -30.674607,500.21129 L -30.674607,440.31572 C -30.622077,422.00955 -28.429017,418.06992 -22.939797,411.88469 L 48.603963,338.84387 L 48.590833,366.67082 C 48.617093,371.96306 46.647283,376.57244 42.996553,380.30196 L 11.413813,412.94839 C 9.3520729,415.07579 8.4722229,417.62342 9.5359229,420.00034 L 35.695093,393.63105 L 49.286833,379.69788 z M -115.11411,460.9594 L -77.398677,500.22442 L -101.99513,500.22442 C -110.09764,500.1719 -115.08784,494.42003 -115.11411,486.02861 L -115.11411,460.9594 z M -113.86656,379.69788 L -113.86656,408.12891 C -113.86656,413.47368 -112.31697,418.12245 -108.48239,421.74691 L -76.111727,454.40648 C -74.063117,456.53388 -73.183267,459.08151 -74.233837,461.45842 L -100.40614,435.08914 L -114.33931,421.05091 L -114.33931,444.78064 C -114.40497,451.5962 -112.92105,458.03094 -108.94201,462.86356 L -73.301457,500.21129 L -33.905107,500.21129 L -33.905107,440.31572 C -33.957637,422.00955 -36.150697,418.06992 -41.639927,411.88469 L -113.17056,338.84387 L -113.17056,366.67082 C -113.19682,371.96306 -111.227,376.57244 -107.57627,380.30196 L -75.993537,412.94839 C -73.931797,415.07579 -73.051947,417.62342 -74.115647,420.00034 L -100.27482,393.63105 L -113.86656,379.69788"
         id="path2416"
         style="fill:#384192;fill-opacity:1;fill-rule:evenodd;stroke:none" />
      <path
         d="M 148.74946,337.66198 C 124.79649,358.72589 97.481693,374.4319 68.289003,387.11752 L 172.26908,460.93314 L 166.41216,463.71715 L 123.35196,435.35178 C 109.33999,426.1199 74.539893,432.51524 67.527343,444.24222 L 147.56757,499.7648 C 169.73458,478.63523 196.83927,461.89178 228.43513,449.12737 L 123.23377,376.51991 L 128.81492,372.19944 L 162.87962,396.37566 C 179.85944,408.43094 193.35926,411.60892 229.97159,393.76237 L 148.74946,337.66198"
         id="path2422"
         style="fill:#de0029;fill-opacity:1;fill-rule:evenodd;stroke:none" />
    </g>
  </g>
</svg>
