<?xml version="1.0" encoding="UTF-8" standalone="no"?>
<!-- Created with Inkscape (http://www.inkscape.org/) -->

<svg
   xmlns:dc="http://purl.org/dc/elements/1.1/"
   xmlns:cc="http://creativecommons.org/ns#"
   xmlns:rdf="http://www.w3.org/1999/02/22-rdf-syntax-ns#"
   xmlns:svg="http://www.w3.org/2000/svg"
   xmlns="http://www.w3.org/2000/svg"
   xmlns:sodipodi="http://sodipodi.sourceforge.net/DTD/sodipodi-0.dtd"
   xmlns:inkscape="http://www.inkscape.org/namespaces/inkscape"
   width="500mm"
   height="100mm"
   viewBox="0 0 1771.6535 354.33071"
   id="svg2"
   version="1.1"
   inkscape:version="0.91 r13725"
   sodipodi:docname="sagram only.svg"
   inkscape:export-filename="/Users/westworld/Documents/sagram.png"
   inkscape:export-xdpi="126"
   inkscape:export-ydpi="126">
  <defs
     id="defs4" />
  <sodipodi:namedview
     id="base"
     pagecolor="#ffffff"
     bordercolor="#666666"
     borderopacity="1.0"
     inkscape:pageopacity="0.0"
     inkscape:pageshadow="2"
     inkscape:zoom="0.35"
     inkscape:cx="1064.0005"
     inkscape:cy="486.52649"
     inkscape:document-units="px"
     inkscape:current-layer="g4331"
     showgrid="false"
     inkscape:window-width="1394"
     inkscape:window-height="856"
     inkscape:window-x="46"
     inkscape:window-y="0"
     inkscape:window-maximized="1" />
  <metadata
     id="metadata7">
    <rdf:RDF>
      <cc:Work
         rdf:about="">
        <dc:format>image/svg+xml</dc:format>
        <dc:type
           rdf:resource="http://purl.org/dc/dcmitype/StillImage" />
        <dc:title></dc:title>
      </cc:Work>
    </rdf:RDF>
  </metadata>
  <g
     inkscape:label="Layer 1"
     inkscape:groupmode="layer"
     id="layer1"
     transform="translate(0,-698.0315)">
    <g
       id="g4305"
       transform="translate(679.01058,0)"
       style="fill:#005c94">
      <g
         id="g4331"
         transform="translate(-708.6613,77.801988)"
         inkscape:export-xdpi="126"
         inkscape:export-ydpi="126"
         style="fill:#0084c8">
        <path
           inkscape:connector-curvature="0"
           id="path4147"
           d="m 323.30563,918.72751 c -9.8407,-2.24303 -18.0195,-8.74012 -22.9631,-18.24161 -6.5575,-12.60326 -6.329,-13.36191 30.2491,-100.43883 9.9526,-23.69286 24.448,-58.38198 32.2119,-77.08684 7.7639,-18.70497 16.4048,-36.36628 19.202,-39.24742 8.4325,-8.68569 20.796,-11.82501 32.5909,-8.27522 17.4498,5.25158 26.6845,17.80185 24.8175,33.72797 -0.8734,7.45135 -25.2368,68.92286 -41.6456,105.07702 -1.8456,4.06653 -2.7321,8.40266 -1.9699,9.6358 1.8859,3.0514 27.6774,2.85731 29.581,-0.22261 0.8378,-1.35565 0.3878,-3.60032 -0.9998,-4.98799 -1.3878,-1.38779 -2.5233,-7.55506 -2.5233,-13.70528 0,-20.57819 13.4741,-33.77945 34.4774,-33.77945 18.4164,0 24.5986,7.06612 43.1061,49.26932 3.2811,7.48194 10.6332,24.06485 16.3381,36.85073 5.7049,12.78599 10.3725,26.35521 10.3725,30.15377 0,14.09957 -11.0838,27.37831 -26.1985,31.38703 -16.9356,4.49163 -32.4124,-4.09133 -40.7606,-22.60429 l -4.0147,-8.90306 -43.3004,0 -43.3004,0 -6.5743,12.58185 c -8.8879,17.00944 -20.9137,22.85159 -38.6959,18.7984 z m 828.60857,-0.19736 c -5.5343,-1.79749 -22.2347,-16.68258 -55.1934,-49.19391 -25.992,-25.63908 -49.3738,-49.5646 -51.9598,-53.16776 -9.4127,-13.11548 -4.2713,-36.68834 10.3878,-47.62603 5.9756,-4.45863 9.9896,-4.84593 61.216,-5.90521 30.1516,-0.62346 56.0964,-1.95901 57.6551,-2.96791 4.3709,-2.82878 3.3817,-12.45027 -1.5513,-15.09043 -2.6544,-1.42057 -24.7459,-2.34696 -55.9657,-2.34696 -47.3283,0 -52.3699,-0.38227 -61.1601,-4.63764 -7.1912,-3.4811 -10.4791,-6.88471 -13.1858,-13.64943 -7.1807,-17.94654 -2.7558,-37.10012 10.4281,-45.13809 7.0045,-4.27056 11.332,-4.57633 64.883,-4.5842 62.5059,-0.0109 72.0543,1.26451 89.4559,11.93347 30.3289,18.5947 38.7785,78.1919 16.4805,116.2406 -9.2212,15.73477 -26.878,25.21385 -52.0413,27.93828 l -13.4264,1.45379 14.2638,13.60353 c 25.362,24.18824 30.9552,37.55014 22.7839,54.42987 -8.4912,17.54078 -24.8231,24.63466 -43.0703,18.70803 z m 97.3816,-0.19289 c -16.0991,-5.32207 -24.8292,-15.81684 -24.8292,-29.84767 0,-7.66717 5.9141,-25.38226 15.902,-47.63182 1.1195,-2.49405 10.2962,-24.42975 20.3925,-48.74617 47.9503,-115.48458 45.7768,-111.32309 60.9367,-116.67183 21.2369,-7.49278 44.081,8.91508 44.0647,31.64964 0,7.5969 -12.5056,41.81327 -25.6772,70.28506 -5.4029,11.67907 -18.1266,44.214 -18.1266,46.35048 0,1.441 5.9726,2.39559 14.9896,2.39559 l 14.9894,0 -1.8668,-8.50221 c -2.9151,-13.27612 -1.7272,-25.59055 3.0923,-32.05693 6.9561,-9.33309 18.1051,-14.72969 30.0583,-14.54938 17.6715,0.26654 23.6493,6.20673 37.2049,36.9704 3.5716,8.10551 9.5198,21.36896 13.2184,29.47447 3.6985,8.1054 9.2519,20.34858 12.3408,27.20707 12.5247,27.80889 4.4943,48.69448 -20.927,54.4279 -8.9363,2.0155 -22.7768,-0.86585 -28.484,-5.92991 -1.9826,-1.75912 -6.0636,-8.24976 -9.069,-14.42381 l -5.4645,-11.22543 -43.7605,-0.0885 -43.7603,-0.0885 -3.2014,7.66171 c -5.01,11.99084 -14.2308,21.4672 -23.3534,24.00103 -9.6998,2.69405 -8.3752,2.74104 -18.6697,-0.66214 z m 462.9108,0.73646 c -11.4871,-2.71218 -18.3135,-11.08751 -23.3197,-28.61124 -2.4506,-8.57773 -8.9236,-31.40998 -14.3846,-50.73841 -29.9575,-106.02975 -26.5992,-96.28423 -33.4521,-97.07598 l -6.2096,-0.71733 0,74.48972 c 0,72.73978 -0.1199,74.72742 -5.1013,84.60605 -8.3527,16.564 -28.3308,22.84165 -46.0034,14.4555 -15.7431,-7.47058 -15.6534,-6.97247 -16.9131,-93.89596 l -1.1336,-78.22054 -10.2027,0 -10.2027,0 -1.1336,78.22054 c -1.023,70.58526 -1.5339,78.81 -5.2341,84.26005 -12.5945,18.55055 -45.612,17.02299 -57.0384,-2.63875 -4.4451,-7.6487 -4.6116,-11.49798 -4.6116,-106.56119 0,-109.69335 -0.047,-109.31599 14.6122,-117.55494 8.4756,-4.76353 10.7725,-4.87719 98.6053,-4.87719 79.213,0 90.792,0.44675 97.1835,3.74939 13.6611,7.05891 15.4401,11.16445 33.2529,76.73844 1.8204,6.70134 21.964,78.85449 28.8002,103.16031 9.3753,33.33358 9.0412,40.87453 -2.2898,51.69583 -5.8516,5.58829 -21.6212,12.47432 -26.4339,11.54268 -0.6235,-0.12054 -4.5789,-1.03283 -8.7899,-2.02709 z M 90.567662,915.75513 c -12.84665,-7.16492 -17.38977,-31.98721 -8.9002,-48.62805 7.47783,-14.65778 14.1551,-16.06666 76.147568,-16.06666 l 53.2834,0 2.5784,-5.65899 c 2.1304,-4.67578 1.864,-6.44824 -1.5337,-10.20265 -3.7982,-4.19701 -6.9832,-4.54562 -41.7372,-4.56824 -56.82888,-0.0372 -73.680858,-6.93204 -88.648168,-36.27045 -9.70555,-19.02451 -9.53027,-64.98725 0.32283,-84.65205 5.80384,-11.58322 14.50053,-21.15126 23.492988,-25.84682 15.31157,-7.99525 28.69141,-9.59307 80.48775,-9.61176 46.5409,-0.0164 51.6467,0.36774 58.2373,4.38629 10.0601,6.13416 12.8717,12.58972 12.7325,29.23536 -0.1382,16.53275 -4.2691,24.04234 -16.7167,30.3896 -6.6555,3.39367 -14.494,3.96467 -54.4685,3.96762 -42.35461,0 -47.04301,0.38894 -50.44657,4.1498 -4.77345,5.27465 -4.72759,7.88826 0.21542,12.27881 3.17152,2.81709 12.15695,3.73398 44.77835,4.56922 45.0808,1.15447 55.1501,3.39717 69.9233,15.57456 19.9945,16.48117 29.061,54.53468 21.0104,88.18342 -5.5472,23.18524 -15.7975,36.60103 -34.9415,45.73238 -10.141,4.83707 -13.7174,5.10853 -75.2639,5.71407 -53.30714,0.52445 -65.656018,0.0557 -70.553778,-2.67546 z m 476.358068,-0.83689 c -16.092,-8.47358 -15.9734,-7.53637 -15.3017,-120.95911 l 0.5998,-101.31277 6.609,-6.89651 c 12.2773,-12.81136 34.5432,-15.06306 45.6618,-4.61764 2.9405,2.76234 18.9094,25.7924 35.4866,51.17772 16.5771,25.38543 30.9054,46.16491 31.8406,46.17672 0.9353,0.012 1.7021,-17.57816 1.704,-39.08885 0,-43.08347 1.6942,-50.08293 14.3332,-59.35438 8.9666,-6.57763 30.3778,-6.57763 39.3444,0 14.3312,10.5128 14.3293,10.49739 14.3331,116.10869 0,103.44073 -0.145,104.85988 -12.1567,115.93636 -7.7954,7.1883 -26.9658,9.14982 -37.2828,3.81463 -10.5539,-5.45759 -14.1584,-9.98507 -44.2757,-55.61177 l -27.5796,-41.78245 -1.1385,38.38157 c -0.984,33.17402 -1.7635,39.45822 -5.7452,46.31692 -8.6233,14.85384 -30.152,20.28367 -46.4323,11.71087 z m 303.84816,2.59361 c -23.1442,-3.87419 -51.77446,-18.62738 -68.82986,-35.46787 -47.8296,-47.22693 -46.3703,-129.7884 3.0793,-174.22052 6.8585,-6.16257 19.61176,-14.7286 28.34076,-19.03555 23.5038,-11.59699 41.1044,-14.48938 88.4232,-14.53091 34.4258,-0.0306 42.0269,0.58434 48.585,3.92829 22.1095,11.27395 24.2922,43.29481 3.9685,58.21728 -5.8436,4.29056 -10.5383,4.80408 -54.4143,5.95177 -53.6126,1.40242 -55.9456,1.99222 -70.1731,17.74032 -10.1176,11.19899 -13.8451,24.19775 -12.3469,43.05702 1.4109,17.76306 9.1054,29.89226 25.3242,39.91962 9.2951,5.74686 13.8927,6.98296 28.4295,7.64379 l 17.3412,0.78837 7.0303,-17.79279 c 3.8667,-9.78606 9.2496,-23.72531 11.962,-30.97612 l 4.9317,-13.18334 38.1495,0.7134 c 36.34981,0.67974 38.41461,0.96289 43.77161,6.00116 11.9804,11.26772 12.0166,37.07815 0.068,48.30347 -4.5447,4.26946 -8.8748,5.41978 -24.14271,6.4137 l -18.6047,1.21108 -9.706,28.34076 c -5.3385,15.58746 -10.673,30.63637 -11.8546,33.4421 -2.1071,5.0034 -2.8347,5.09542 -37.9063,4.7926 -19.6669,-0.16983 -38.3087,-0.7357 -41.4261,-1.25763 z"
           style="fill:#0084c8"
           inkscape:export-xdpi="126"
           inkscape:export-ydpi="126" />
      </g>
    </g>
  </g>
</svg>
