<?xml version="1.0" encoding="UTF-8" standalone="no"?>
<!-- Created with Inkscape (http://www.inkscape.org/) -->

<svg
   xmlns:dc="http://purl.org/dc/elements/1.1/"
   xmlns:cc="http://creativecommons.org/ns#"
   xmlns:rdf="http://www.w3.org/1999/02/22-rdf-syntax-ns#"
   xmlns:svg="http://www.w3.org/2000/svg"
   xmlns="http://www.w3.org/2000/svg"
   xmlns:sodipodi="http://sodipodi.sourceforge.net/DTD/sodipodi-0.dtd"
   xmlns:inkscape="http://www.inkscape.org/namespaces/inkscape"
   width="600mm"
   height="200mm"
   viewBox="0 0 2125.9842 708.66141"
   id="svg2"
   version="1.1"
   inkscape:version="0.91 r13725"
   sodipodi:docname="sagram.svg"
   inkscape:export-filename="/Users/westworld/Documents/sagram.png"
   inkscape:export-xdpi="126"
   inkscape:export-ydpi="126">
  <defs
     id="defs4" />
  <sodipodi:namedview
     id="base"
     pagecolor="#ffffff"
     bordercolor="#666666"
     borderopacity="1.0"
     inkscape:pageopacity="0.0"
     inkscape:pageshadow="2"
     inkscape:zoom="0.35"
     inkscape:cx="874.00051"
     inkscape:cy="257.95506"
     inkscape:document-units="px"
     inkscape:current-layer="g4331"
     showgrid="false"
     inkscape:window-width="1394"
     inkscape:window-height="856"
     inkscape:window-x="46"
     inkscape:window-y="0"
     inkscape:window-maximized="1" />
  <metadata
     id="metadata7">
    <rdf:RDF>
      <cc:Work
         rdf:about="">
        <dc:format>image/svg+xml</dc:format>
        <dc:type
           rdf:resource="http://purl.org/dc/dcmitype/StillImage" />
        <dc:title />
      </cc:Work>
    </rdf:RDF>
  </metadata>
  <g
     inkscape:label="Layer 1"
     inkscape:groupmode="layer"
     id="layer1"
     transform="translate(0,-343.70079)">
    <g
       id="g4305"
       transform="translate(679.01058,0)"
       style="fill:#005c94">
      <g
         id="g4331"
         transform="translate(-708.6613,77.801988)"
         inkscape:export-xdpi="126"
         inkscape:export-ydpi="126"
         style="fill:#0084c8">
        <path
           inkscape:connector-curvature="0"
           id="path4147"
           d="m 500.47103,666.01839 c -9.8407,-2.24303 -18.0195,-8.74012 -22.9631,-18.24161 -6.5575,-12.60326 -6.329,-13.36191 30.2491,-100.43883 9.9526,-23.69286 24.448,-58.38198 32.2119,-77.08684 7.7639,-18.70497 16.4048,-36.36628 19.202,-39.24742 8.4325,-8.68569 20.796,-11.82501 32.5909,-8.27522 17.4498,5.25158 26.6845,17.80185 24.8175,33.72797 -0.8734,7.45135 -25.2368,68.92286 -41.6456,105.07702 -1.8456,4.06653 -2.7321,8.40266 -1.9699,9.6358 1.8859,3.0514 27.6774,2.85731 29.581,-0.22261 0.8378,-1.35565 0.3878,-3.60032 -0.9998,-4.98799 -1.3878,-1.38779 -2.5233,-7.55506 -2.5233,-13.70528 0,-20.57819 13.4741,-33.77945 34.4774,-33.77945 18.4164,0 24.5986,7.06612 43.1061,49.26932 3.2811,7.48194 10.6332,24.06485 16.3381,36.85073 5.7049,12.78599 10.3725,26.35521 10.3725,30.15377 0,14.09957 -11.0838,27.37831 -26.1985,31.38703 -16.9356,4.49163 -32.4124,-4.09133 -40.7606,-22.60429 l -4.0147,-8.90306 -43.3004,0 -43.3004,0 -6.5743,12.58185 c -8.8879,17.00944 -20.9137,22.85159 -38.6959,18.7984 z m 828.60857,-0.19736 c -5.5343,-1.79749 -22.2347,-16.68258 -55.1934,-49.19391 -25.992,-25.63908 -49.3738,-49.5646 -51.9598,-53.16776 -9.4127,-13.11548 -4.2713,-36.68834 10.3878,-47.62603 5.9756,-4.45863 9.9896,-4.84593 61.216,-5.90521 30.1516,-0.62346 56.0964,-1.95901 57.6551,-2.96791 4.3709,-2.82878 3.3817,-12.45027 -1.5513,-15.09043 -2.6544,-1.42057 -24.7459,-2.34696 -55.9657,-2.34696 -47.3283,0 -52.3699,-0.38227 -61.1601,-4.63764 -7.1912,-3.4811 -10.4791,-6.88471 -13.1858,-13.64943 -7.1807,-17.94654 -2.7558,-37.10012 10.4281,-45.13809 7.0045,-4.27056 11.332,-4.57633 64.883,-4.5842 62.5059,-0.0109 72.0543,1.26451 89.4559,11.93347 30.3289,18.5947 38.7785,78.1919 16.4805,116.2406 -9.2212,15.73477 -26.878,25.21385 -52.0413,27.93828 l -13.4264,1.45379 14.2638,13.60353 c 25.362,24.18824 30.9552,37.55014 22.7839,54.42987 -8.4912,17.54078 -24.8231,24.63466 -43.0703,18.70803 z m 97.3816,-0.19289 c -16.0991,-5.32207 -24.8292,-15.81684 -24.8292,-29.84767 0,-7.66717 5.9141,-25.38226 15.902,-47.63182 1.1195,-2.49405 10.2962,-24.42975 20.3925,-48.74617 47.9503,-115.48458 45.7768,-111.32309 60.9367,-116.67183 21.2369,-7.49278 44.081,8.91508 44.0647,31.64964 0,7.5969 -12.5056,41.81327 -25.6772,70.28506 -5.4029,11.67907 -18.1266,44.214 -18.1266,46.35048 0,1.441 5.9726,2.39559 14.9896,2.39559 l 14.9894,0 -1.8668,-8.50221 c -2.9151,-13.27612 -1.7272,-25.59055 3.0923,-32.05693 6.9561,-9.33309 18.1051,-14.72969 30.0583,-14.54938 17.6715,0.26654 23.6493,6.20673 37.2049,36.9704 3.5716,8.10551 9.5198,21.36896 13.2184,29.47447 3.6985,8.1054 9.2519,20.34858 12.3408,27.20707 12.5247,27.80889 4.4943,48.69448 -20.927,54.4279 -8.9363,2.0155 -22.7768,-0.86585 -28.484,-5.92991 -1.9826,-1.75912 -6.0636,-8.24976 -9.069,-14.42381 l -5.4645,-11.22543 -43.7605,-0.0885 -43.7603,-0.0885 -3.2014,7.66171 c -5.01,11.99084 -14.2308,21.4672 -23.3534,24.00103 -9.6998,2.69405 -8.3752,2.74104 -18.6697,-0.66214 z m 462.9108,0.73646 c -11.4871,-2.71218 -18.3135,-11.08751 -23.3197,-28.61124 -2.4506,-8.57773 -8.9236,-31.40998 -14.3846,-50.73841 -29.9575,-106.02975 -26.5992,-96.28423 -33.4521,-97.07598 l -6.2096,-0.71733 0,74.48972 c 0,72.73978 -0.1199,74.72742 -5.1013,84.60605 -8.3527,16.564 -28.3308,22.84165 -46.0034,14.4555 -15.7431,-7.47058 -15.6534,-6.97247 -16.9131,-93.89596 l -1.1336,-78.22054 -10.2027,0 -10.2027,0 -1.1336,78.22054 c -1.023,70.58526 -1.5339,78.81 -5.2341,84.26005 -12.5945,18.55055 -45.612,17.02299 -57.0384,-2.63875 -4.4451,-7.6487 -4.6116,-11.49798 -4.6116,-106.56119 0,-109.69335 -0.047,-109.31599 14.6122,-117.55494 8.4756,-4.76353 10.7725,-4.87719 98.6053,-4.87719 79.213,0 90.792,0.44675 97.1835,3.74939 13.6611,7.05891 15.4401,11.16445 33.2529,76.73844 1.8204,6.70134 21.964,78.85449 28.8002,103.16031 9.3753,33.33358 9.0412,40.87453 -2.2898,51.69583 -5.8516,5.58829 -21.6212,12.47432 -26.4339,11.54268 -0.6235,-0.12054 -4.5789,-1.03283 -8.7899,-2.02709 z M 267.73306,663.04601 c -12.84665,-7.16492 -17.38977,-31.98721 -8.9002,-48.62805 7.47783,-14.65778 14.1551,-16.06666 76.14757,-16.06666 l 53.2834,0 2.5784,-5.65899 c 2.1304,-4.67578 1.864,-6.44824 -1.5337,-10.20265 -3.7982,-4.19701 -6.9832,-4.54562 -41.7372,-4.56824 -56.82888,-0.0372 -73.68086,-6.93204 -88.64817,-36.27045 -9.70555,-19.02451 -9.53027,-64.98725 0.32283,-84.65205 5.80384,-11.58322 14.50053,-21.15126 23.49299,-25.84682 15.31157,-7.99525 28.69141,-9.59307 80.48775,-9.61176 46.5409,-0.0164 51.6467,0.36774 58.2373,4.38629 10.0601,6.13416 12.8717,12.58972 12.7325,29.23536 -0.1382,16.53275 -4.2691,24.04234 -16.7167,30.3896 -6.6555,3.39367 -14.494,3.96467 -54.4685,3.96762 -42.35461,0 -47.04301,0.38894 -50.44657,4.1498 -4.77345,5.27465 -4.72759,7.88826 0.21542,12.27881 3.17152,2.81709 12.15695,3.73398 44.77835,4.56922 45.0808,1.15447 55.1501,3.39717 69.9233,15.57456 19.9945,16.48117 29.061,54.53468 21.0104,88.18342 -5.5472,23.18524 -15.7975,36.60103 -34.9415,45.73238 -10.141,4.83707 -13.7174,5.10853 -75.2639,5.71407 -53.30714,0.52445 -65.65602,0.0557 -70.55378,-2.67546 z m 476.35807,-0.83689 c -16.092,-8.47358 -15.9734,-7.53637 -15.3017,-120.95911 l 0.5998,-101.31277 6.609,-6.89651 c 12.2773,-12.81136 34.5432,-15.06306 45.6618,-4.61764 2.9405,2.76234 18.9094,25.7924 35.4866,51.17772 16.5771,25.38543 30.9054,46.16491 31.8406,46.17672 0.9353,0.012 1.7021,-17.57816 1.704,-39.08885 0,-43.08347 1.6942,-50.08293 14.3332,-59.35438 8.9666,-6.57763 30.3778,-6.57763 39.3444,0 14.3312,10.5128 14.3293,10.49739 14.3331,116.10869 0,103.44073 -0.145,104.85988 -12.1567,115.93636 -7.7954,7.1883 -26.9658,9.14982 -37.2828,3.81463 -10.5539,-5.45759 -14.1584,-9.98507 -44.2757,-55.61177 l -27.5796,-41.78245 -1.1385,38.38157 c -0.984,33.17402 -1.7635,39.45822 -5.7452,46.31692 -8.6233,14.85384 -30.152,20.28367 -46.4323,11.71087 z m 303.84817,2.59361 c -23.1442,-3.87419 -51.77447,-18.62738 -68.82987,-35.46787 -47.8296,-47.22693 -46.3703,-129.7884 3.0793,-174.22052 6.8585,-6.16257 19.61177,-14.7286 28.34077,-19.03555 23.5038,-11.59699 41.1044,-14.48938 88.4232,-14.53091 34.4258,-0.0306 42.0269,0.58434 48.585,3.92829 22.1095,11.27395 24.2922,43.29481 3.9685,58.21728 -5.8436,4.29056 -10.5383,4.80408 -54.4143,5.95177 -53.6126,1.40242 -55.9456,1.99222 -70.1731,17.74032 -10.1176,11.19899 -13.8451,24.19775 -12.3469,43.05702 1.4109,17.76306 9.1054,29.89226 25.3242,39.91962 9.2951,5.74686 13.8927,6.98296 28.4295,7.64379 l 17.3412,0.78837 7.0303,-17.79279 c 3.8667,-9.78606 9.2496,-23.72531 11.962,-30.97612 l 4.9317,-13.18334 38.1495,0.7134 c 36.3498,0.67974 38.4146,0.96289 43.7716,6.00116 11.9804,11.26772 12.0166,37.07815 0.068,48.30347 -4.5447,4.26946 -8.8748,5.41978 -24.1427,6.4137 l -18.6047,1.21108 -9.706,28.34076 c -5.3385,15.58746 -10.673,30.63637 -11.8546,33.4421 -2.1071,5.0034 -2.8347,5.09542 -37.9063,4.7926 -19.6669,-0.16983 -38.3087,-0.7357 -41.4261,-1.25763 z"
           style="fill:#0084c8"
           inkscape:export-xdpi="126"
           inkscape:export-ydpi="126" />
        <g
           id="g4159"
           transform="translate(1.000001,0)"
           inkscape:export-xdpi="126"
           inkscape:export-ydpi="126">
          <g
             transform="translate(-1609.8988,-68.857143)"
             id="g4243"
             style="fill:#0084c8">
            <path
               inkscape:connector-curvature="0"
               style="fill:#0084c8"
               d="m 2310.3472,887.06524 c -14.0695,-3.4863 -25.8574,-14.562 -29.9872,-28.1755 -1.9712,-6.4978 -1.9149,-18.464 0.1171,-24.9103 6.6734,-21.1704 30.2995,-33.9852 51.0216,-27.6741 21.6678,6.5991 34.369,26.4883 30.4412,47.6689 -4.3952,23.7007 -28.1083,38.9101 -51.5927,33.091 z"
               id="path4241" />
            <path
               inkscape:connector-curvature="0"
               style="fill:#ffffff"
               d="m 2331.0073,862.58764 c 11.5042,-7.2958 11.5674,-23.5656 0.1223,-31.5167 -3.5022,-2.433 -5.2191,-2.93 -10.1222,-2.93 -6.9391,0 -10.9495,1.9791 -15.5542,7.6761 -2.8413,3.5154 -3.106,4.4661 -3.106,11.1572 0,6.6502 0.2747,7.6538 3.0251,11.0519 6.5461,8.088 17.1102,9.9678 25.635,4.5615 z"
               id="path4239" />
            <path
               inkscape:connector-curvature="0"
               style="fill:#0084c8"
               d="m 2449.1727,887.00694 c -1.746,-0.755 -3.8534,-2.4212 -4.6832,-3.7027 -0.8297,-1.2815 -4.2832,-12.23 -7.6743,-24.33 -8.3992,-29.9689 -8.3906,-29.9448 -10.8139,-30.3134 -2.0303,-0.3089 -2.0645,0.073 -2.3571,26.3335 l -0.297,26.6469 -3.2658,2.9165 c -2.575,2.2996 -4.2109,2.9165 -7.7342,2.9165 -3.5233,0 -5.1592,-0.6169 -7.7342,-2.9165 l -3.2658,-2.9165 -0.2966,-26.5835 -0.2966,-26.5835 -3.4534,0 -3.4534,0 0,24.8508 c 0,14.4478 -0.4306,26.0859 -1.0285,27.8012 -1.9031,5.459 -10.0295,8.0384 -15.9715,5.0693 -1.375,-0.687 -3.2868,-2.8179 -4.2484,-4.7352 -1.5505,-3.0914 -1.748,-6.9396 -1.7445,-33.9861 0,-18.1105 0.4282,-32.0271 1.0481,-34.2595 1.9422,-6.9934 2.8554,-7.1976 33.8982,-7.5785 30.729,-0.3771 37.012,0.3294 39.7231,4.467 1.6607,2.5346 2.3228,4.6484 9.8256,31.371 2.3935,8.525 5.5041,19.55 6.9125,24.5 1.4083,4.95 2.5661,10.4018 2.573,12.1151 0.015,3.8866 -3.0826,7.9518 -6.7218,8.82 -1.5212,0.3629 -3.4408,0.8422 -4.2658,1.065 -0.825,0.2229 -2.9285,-0.2125 -4.6745,-0.9674 z"
               id="path4237" />
            <path
               inkscape:connector-curvature="0"
               style="fill:#0084c8"
               d="m 2576.8472,887.03094 c -14.4235,-4.0515 -25.1368,-13.9567 -29.2647,-27.0571 -4.8541,-15.4052 -1.6736,-30.2372 8.9104,-41.5523 5.6644,-6.0557 11.2096,-9.4899 19.4792,-12.0637 23.3547,-7.2688 48.5963,8.9343 53.0173,34.0331 1.3741,7.801 -0.059,16.4182 -4.0957,24.6308 -8.5506,17.3952 -29.8074,27.1326 -48.0465,22.0092 z"
               id="path4235" />
            <path
               inkscape:connector-curvature="0"
               style="fill:#ffffff"
               d="m 2595.1293,864.12164 c 13.179,-5.5381 15.239,-24.444 3.569,-32.7538 -6.3194,-4.4998 -16.8267,-4.3997 -22.7377,0.2167 -8.6641,6.7666 -9.6918,21.5055 -1.9923,28.5729 5.7302,5.2597 14.2707,6.8596 21.161,3.9642 z"
               id="path4233" />
            <path
               inkscape:connector-curvature="0"
               style="fill:#0084c8"
               d="m 2240.3446,886.54834 c -5.3832,-1.2922 -13.9042,-6.1168 -18.3509,-10.3904 -14.6473,-14.0773 -17.3365,-34.548 -6.7178,-51.1368 4.2214,-6.5947 9.5626,-11.1879 17.0239,-14.6397 9.8936,-4.577 27.6918,-6.0411 33.7871,-2.7793 2.3869,1.2774 4.7603,6.151 4.7603,9.775 0,7.8552 -4.3943,10.798 -17.0631,11.4269 -9.2974,0.4616 -12.807,1.7764 -17.267,6.4689 -6.5065,6.8456 -5.3959,19.0465 2.3252,25.5434 4.0071,3.3717 8.8628,4.6451 17.7391,4.6519 6.4751,0 7.5572,0.2942 10.3118,2.7556 5.6618,5.0593 4.6803,15.8828 -1.659,18.293 -2.8735,1.0925 -20.3773,1.1147 -24.8896,0.032 z"
               id="path4231" />
            <path
               inkscape:connector-curvature="0"
               style="fill:#0084c8"
               d="m 2476.2994,884.82784 c -2.4298,-2.6219 -2.4522,-2.8252 -2.4522,-22.2775 0,-27.5082 -0.4211,-27.0765 26.4152,-27.0765 15.754,0 17.61,-0.1785 18.4648,-1.7758 0.6029,-1.1266 0.5976,-2.4062 -0.015,-3.5 -0.8604,-1.5376 -3.0143,-1.7242 -19.8994,-1.7242 l -18.9345,0 -3.1587,-2.8222 c -2.864,-2.559 -3.1586,-3.3685 -3.1586,-8.6788 0,-10.5606 4.1905,-12.0953 30.6278,-11.2167 18.2032,0.6049 22.1734,1.4754 27.3134,5.9884 5.3795,4.7233 7.3445,10.2389 7.3445,20.6159 0,7.2913 -0.4087,9.5408 -2.4932,13.724 -4.6231,9.2772 -12.0085,12.3579 -29.6731,12.3775 l -10.6662,0.012 -0.3338,12.0889 c -0.3264,11.8254 -0.3948,12.1414 -3.1395,14.5 -2.2283,1.9149 -3.936,2.4111 -8.2977,2.4111 -4.6544,0 -5.866,-0.4035 -7.9443,-2.646 z"
               id="path4229" />
            <path
               inkscape:connector-curvature="0"
               style="fill:#0084c8"
               d="m 2641.613,884.55694 -3.2658,-2.9168 -0.2889,-33.1001 c -0.3153,-36.1352 -0.01,-38.4708 5.3841,-40.9276 3.1376,-1.4296 8.9176,-1.4697 11.5145,-0.08 1.088,0.5823 6.7138,8.2401 12.5018,17.0172 5.7881,8.7772 10.9433,15.6993 11.4561,15.3823 0.5128,-0.3169 0.9324,-6.6593 0.9324,-14.0941 l 0,-13.5179 2.9231,-2.9231 c 2.3913,-2.3913 3.7677,-2.9231 7.5657,-2.9231 5.6763,0 8.0323,1.1732 10.0009,4.98 1.2566,2.4301 1.5103,8.4044 1.5103,35.566 0,35.9419 -0.1725,37.0402 -6.2094,39.5408 -3.857,1.5976 -10.4898,0.5444 -13.3208,-2.1152 -1.2835,-1.2058 -6.3018,-8.2085 -11.1517,-15.5617 -4.85,-7.3531 -9.1104,-13.3784 -9.4677,-13.3896 -0.3572,-0.011 -0.8072,5.8669 -1,13.0624 l -0.3504,13.0826 -3.2658,2.9174 c -4.5998,4.109 -10.8682,4.1092 -15.4684,4e-4 z"
               id="path4227" />
            <path
               inkscape:connector-curvature="0"
               style="fill:#0084c8"
               d="m 2725.3472,886.74104 c -8.8655,-2.2197 -14.5404,-14.9927 -11.565,-26.0303 1.368,-5.0751 5.8539,-10.4926 10.1678,-12.2795 l 3.112,-1.289 -2.8574,-1.4594 c -7.3485,-3.7531 -10.3574,-9.2761 -10.3574,-19.0119 0,-9.3826 2.79,-14.6979 9.5387,-18.1726 4.7388,-2.4398 5.6544,-2.5362 27.2867,-2.8724 12.3108,-0.1913 24.4179,-0.043 26.9045,0.3301 6.4428,0.9662 9.2739,4.0927 9.2565,10.2223 -0.034,11.9076 -0.8984,12.2955 -27.4016,12.2955 -19.7028,0 -20.5581,0.082 -21.619,2.0639 -2.3873,4.4608 -0.3545,4.9361 21.1096,4.9361 12.4055,0 20.743,0.4158 22.2677,1.1105 3.42,1.5582 5.1693,5.3768 5.0828,11.0951 -0.06,3.9271 -0.6083,5.4318 -2.7705,7.5958 l -2.6964,2.6986 -20.6983,0.3091 c -22.8842,0.3418 -26.1268,1.1819 -21.6893,5.6195 1.3257,1.3257 4.805,1.5749 22.25,1.5936 25.2086,0.027 25.3355,0.078 25.9872,10.3135 0.3796,5.961 0.192,6.7546 -2.1509,9.0975 l -2.5668,2.5668 -27.2954,-0.116 c -15.0126,-0.064 -28.1955,-0.3413 -29.2955,-0.6168 z"
               id="path4225" />
            <path
               inkscape:connector-curvature="0"
               style="fill:#0084c8"
               d="m 2804.1555,886.46424 c -1.2054,-0.4855 -3.0054,-2.1236 -4,-3.64 -1.6213,-2.4722 -1.841,-5.8119 -2.1247,-32.3038 -0.3674,-34.3033 -0.09,-37.2943 3.8251,-41.2092 2.3608,-2.3607 3.6784,-2.8374 7.843,-2.8374 3.4297,0 5.5597,0.5509 6.7662,1.75 0.9684,0.9625 6.2019,8.5 11.63,16.75 5.4281,8.25 10.2929,15.15 10.8107,15.3333 0.5599,0.1983 0.9414,-5.4046 0.9414,-13.8269 l 0,-14.1602 2.9231,-2.9231 c 2.4745,-2.4746 3.7139,-2.9231 8.0769,-2.9231 4.363,0 5.6024,0.4485 8.0769,2.9231 l 2.9231,2.9231 0,34.5211 c 0,34.5059 0,34.5224 -2.283,37.1753 -1.6486,1.9166 -3.5478,2.7967 -6.8343,3.1672 -7.516,0.8471 -9.7587,-1.0341 -20.5598,-17.246 -5.3001,-7.9551 -10.0159,-14.4638 -10.4797,-14.4638 -0.4638,0 -0.8432,5.3788 -0.8432,11.9529 0,7.1374 -0.4813,13.0094 -1.1947,14.575 -2.1309,4.677 -9.6146,6.832 -15.497,4.4625 z"
               id="path4223" />
            <path
               inkscape:connector-curvature="0"
               style="fill:#0084c8"
               d="m 2891.613,884.55734 -3.2658,-2.9165 -0.2966,-26.5835 -0.2966,-26.5835 -5.9376,0 c -5.1475,0 -6.3722,-0.3883 -9.2034,-2.918 -2.935,-2.6224 -3.2658,-3.4727 -3.2658,-8.395 0,-6.4254 1.8842,-9.1436 7.3999,-10.6758 4.7859,-1.3294 40.5721,-1.2855 45.4021,0.056 4.642,1.2891 7.6889,5.7698 7.6943,11.315 0,3.1584 -0.662,4.5097 -3.5675,7.25 -3.2188,3.0358 -4.1502,3.3681 -9.4395,3.3681 l -5.8682,0 -0.3106,26.5836 -0.3105,26.5835 -3.2658,2.9165 c -4.5999,4.1078 -10.8686,4.1078 -15.4684,-10e-5 z"
               id="path4221" />
            <path
               inkscape:connector-curvature="0"
               style="fill:#0084c8"
               d="m 2941.3018,885.01934 c -2.024,-2.024 -2.4546,-3.4409 -2.4546,-8.077 0,-4.8808 0.3855,-6.0079 2.9231,-8.5454 l 2.923,-2.9231 18.5056,0 c 15.4898,0 18.7615,-0.2561 20.0769,-1.5714 1.886,-1.8861 1.9529,-2.6471 0.3714,-4.2286 -0.7933,-0.7933 -5.1146,-1.204 -12.75,-1.2119 -22.7214,-0.023 -30.0195,-4.544 -33.2423,-20.5913 -0.8832,-4.398 -0.8585,-7.0953 0.1082,-11.7991 3.3726,-16.4111 11.1869,-20.5801 38.5841,-20.5846 18.806,0 22.5,1.9418 22.5,11.846 0,4.0595 -0.512,5.4775 -2.9012,8.0351 l -2.9012,3.1058 -16.9764,0 c -14.2694,0 -17.1859,0.2525 -18.2908,1.5838 -0.9518,1.1469 -1.0255,2.0435 -0.2671,3.25 0.8723,1.3879 3.4516,1.7497 15.442,2.1662 12.4775,0.4334 15.031,0.8133 19.1719,2.8524 6.4064,3.1546 9.3722,7.3496 11.3323,16.0293 3.4765,15.3946 -2.5976,28.6733 -14.7046,32.1456 -1.8654,0.535 -12.7526,0.9727 -24.1937,0.9727 -20.7529,0 -20.8079,-0.01 -23.2566,-2.4545 z"
               id="path4217" />
          </g>
          <path
             inkscape:connector-curvature="0"
             id="path4213"
             d="m 1684.9514,818.30235 c -4.8361,-2.1347 -7,-5.26369 -7,-10.12189 0,-7.3604 7.0685,-12.7632 13.7941,-10.5435 5.3672,1.7713 8.0392,5.2768 8.0392,10.5469 0,5.12449 -2.0148,8.02729 -7.0512,10.15899 -3.8645,1.6357 -3.9862,1.635 -7.7821,-0.04 z m -201.4803,-1.825 c -4.4415,-2.3493 -4.9891,-4.98349 -5.005,-24.07219 -0.022,-26.8445 -0.1617,-26.7003 25.8277,-26.7003 15.1238,0 18.1174,-0.2466 19.2272,-1.5838 0.9526,-1.1478 1.0257,-2.0425 0.2657,-3.25 -0.8991,-1.4286 -3.7498,-1.7375 -19.9908,-2.1662 -15.7747,-0.4164 -19.3872,-0.7922 -21.604,-2.2473 -5.532,-3.6312 -5.5246,-14.8803 0.012,-18.5122 2.1483,-1.4091 5.4784,-1.8057 17.4913,-2.083 27.5844,-0.6368 36.2085,1.8815 41.3779,12.0829 2.2922,4.5235 2.6509,6.4665 2.6509,14.3596 0,8.1337 -0.309,9.696 -2.836,14.339 -1.9906,3.6573 -4.1926,6.0083 -7.3864,7.8859 -4.2143,2.4776 -5.547,2.7011 -18.0503,3.0274 -8.7052,0.2271 -13.7609,0.7599 -14.2347,1.5 -0.4041,0.6312 -0.7416,5.9601 -0.75,11.8419 -0.014,9.7174 -0.2262,10.9395 -2.3241,13.37849 -2.7479,3.1945 -10.5729,4.3678 -14.6715,2.1998 z m 94.0269,-1.0225 c -4.0987,-2.83819 -4.3682,-3.34739 -13.8991,-26.24999 -19.1774,-46.0832 -17.4909,-41.3109 -15.9916,-45.2502 1.7689,-4.6475 5.7039,-7.4763 10.5778,-7.6041 7.7007,-0.2019 8.9114,1.6501 20.3266,31.0952 2.3968,6.1825 4.6605,10.9075 5.0305,10.5 0.3699,-0.4075 3.6962,-8.3909 7.3917,-17.7409 3.6955,-9.35 7.3838,-18.0501 8.1961,-19.3335 2.3725,-3.7485 7.604,-5.4617 12.3425,-4.042 9.3377,2.7976 9.98,8.0601 3.0389,24.8993 -2.8285,6.8619 -5.5547,13.3762 -6.0583,14.4762 -0.5035,1.1 -4.1005,9.65 -7.9932,19 -7.8055,18.74809 -10.5363,22.49999 -16.3764,22.49999 -1.835,0 -4.7985,-1.0125 -6.5855,-2.25 z m 73.4534,1.3558 c -1.1,-0.4783 -2.9,-1.8692 -4,-3.0907 -1.8626,-2.06819 -2.0344,-4.01769 -2.5,-28.36799 l -0.5,-26.1471 -6,-0.5245 c -7.4515,-0.6513 -9.7707,-1.9188 -11.9627,-6.5381 -3.0392,-6.4046 -0.2616,-12.7036 6.7778,-15.3708 3.6331,-1.3765 39.9514,-1.398 44.8894,-0.027 5.196,1.4431 7.7955,5.1083 7.7955,10.9913 0,4.1987 -0.4178,5.1284 -3.5348,7.8651 -3.1088,2.7296 -4.2537,3.1036 -9.5,3.1036 l -5.9652,0 0,25.9842 0,25.9842 -2.75,3.07759 c -2.9476,3.2986 -8.9103,4.7296 -12.75,3.0598 z"
             style="fill:#0084c8" />
          <g
             transform="translate(-66,0)"
             id="g4273"
             style="fill:#0084c8">
            <path
               inkscape:connector-curvature="0"
               style="fill:#0084c8"
               d="m 2038.0398,818.22536 c -9.2114,-4.0068 -8.3748,-17.3894 1.2865,-20.5779 6.7331,-2.2221 14.388,3.3839 14.388,10.537 0,4.1503 -2.8439,8.5368 -6.5343,10.0788 -4.1376,1.7288 -5.0877,1.7248 -9.1402,-0.038 z"
               id="path4265" />
            <path
               inkscape:connector-curvature="0"
               style="fill:#0084c8"
               d="m 1860.0226,816.67486 c -1.2054,-0.4855 -3.0054,-2.1236 -4,-3.64 -1.6214,-2.4722 -1.841,-5.8119 -2.1247,-32.3038 -0.1741,-16.2506 -0.023,-31.5323 0.3356,-33.9592 0.953,-6.4486 4.91,-10.0874 10.9696,-10.0874 10.8988,0 11.5112,1.7472 11.5112,32.8434 0,28.5058 -0.9005,26.1566 10.026,26.1566 5.8126,0 7.2917,0.3692 9.6682,2.4134 2.4606,2.1165 2.8058,3.1109 2.8058,8.082 0,5.1387 -0.3053,5.9415 -3.2658,8.5866 l -3.2658,2.918 -15.2342,-0.063 c -8.3788,-0.035 -16.2205,-0.4606 -17.4259,-0.9462 z"
               id="path4263" />
            <path
               inkscape:connector-curvature="0"
               style="fill:#0084c8"
               d="m 1919.2143,816.79026 c -1.1,-0.4784 -2.9,-1.8691 -4,-3.0905 -1.8626,-2.0682 -2.0344,-4.0176 -2.5,-28.368 l -0.5,-26.1473 -6,-0.5245 c -7.4515,-0.6513 -9.7707,-1.9188 -11.9627,-6.5381 -3.4822,-7.3383 0.9803,-14.6427 9.7491,-15.9576 2.3522,-0.3528 12.834,-0.4925 23.2927,-0.3106 16.3771,0.2849 19.4025,0.5844 21.8019,2.1586 4.1011,2.6905 5.9406,7.7643 4.6084,12.7114 -1.3848,5.1431 -4.8013,7.3291 -12.4416,7.9608 l -6.0478,0.5 -0.2663,26.0785 -0.2662,26.0785 -2.8722,2.7517 c -3.0783,2.9492 -9.0668,4.2316 -12.5953,2.6971 z"
               id="path4261" />
            <path
               inkscape:connector-curvature="0"
               style="fill:#0084c8"
               d="m 1967.2143,816.73926 c -1.1,-0.4502 -2.9,-1.8183 -4,-3.0402 -1.9021,-2.1129 -2.0141,-3.8469 -2.2876,-35.4144 l -0.2876,-33.1926 2.3222,-3.4537 c 3.0016,-4.464 7.1461,-5.8271 17.9306,-5.8973 25.5959,-0.1664 41.7381,7.2229 49.2378,22.5393 11.8662,24.2339 -0.991,50.8494 -27.9569,57.8731 -6.3585,1.6562 -31.3214,2.0745 -34.9585,0.5858 z"
               id="path4259" />
            <path
               inkscape:connector-curvature="0"
               style="fill:#ffffff"
               d="m 2001.402,792.59386 c 14.4917,-7.0154 12.2899,-28.4894 -3.3669,-32.8371 -5.4108,-1.5025 -14.3094,-1.3923 -14.3651,0.1779 -0.2762,7.7937 0.2732,34.3113 0.726,35.044 0.937,1.5161 12.2146,-0.065 17.006,-2.3848 z"
               id="path4215" />
          </g>
          <g
             id="g4269"
             style="fill:#0084c8">
            <path
               style="fill:#0084c8"
               d="m 203.85759,818.52761 c -3.6994,-1.041 -8.2862,-6.4881 -8.2862,-9.8405 0,-1.2572 4.0037,-11.7897 8.8972,-23.4056 4.8934,-11.6159 10.989,-26.1312 13.5458,-32.2563 4.8632,-11.6503 6.1963,-13.5155 10.9529,-15.3239 6.0137,-2.2864 14.6041,3.3454 14.6041,9.5745 0,3.112 -3.0147,11.222 -10.8947,29.3083 -2.2579,5.1824 -4.1053,9.7949 -4.1053,10.25 0,0.4552 2.2073,0.8276 4.9052,0.8276 l 4.9051,0 -0.4439,-5.75 c -0.4727,-6.1219 0.7378,-8.6299 5.3593,-11.1032 3.0732,-1.6448 9.4488,-1.4133 12.0934,0.439 1.72,1.2048 9.1809,14.937 9.1809,16.8981 0,0.1858 1.5765,3.7043 3.5034,7.8188 4.2927,9.1665 5.091,12.8481 3.578,16.5007 -2.5408,6.1341 -12.8661,8.6264 -17.5414,4.2342 -1.3085,-1.2293 -2.9223,-3.5464 -3.5862,-5.1491 -1.5505,-3.7433 -2.925,-4.0251 -17.9362,-3.6775 l -12.4824,0.289 -2.3464,4.257 c -3.2485,5.8937 -7.7062,7.8524 -13.9026,6.1089 z m 238.21381,0.032 c -13.8816,-3.1263 -25.4615,-13.2367 -30.5323,-26.6578 -1.6213,-4.2914 -2.16,-7.8863 -2.1339,-14.2405 0.054,-13.0982 4.3427,-22.5768 14.1139,-31.1917 11.1993,-9.8739 25.4563,-13.0908 39.197,-8.8442 31.7649,9.817 41.0016,48.0454 17.0706,70.6513 -9.6566,9.1219 -24.6811,13.2183 -37.7153,10.2829 z m 18.0727,-23.9335 c 2.3911,-1.1575 5.4381,-3.8158 7.0657,-6.1645 2.3856,-3.4424 2.8606,-5.1416 2.8558,-10.2148 -0.01,-7.3121 -2.69,-12.3632 -8.6684,-16.3195 -4.7086,-3.116 -13.4199,-3.5786 -18.4274,-0.9786 -13.683,7.1046 -13.907,26.6075 -0.3889,33.8573 4.6259,2.481 12.2275,2.4031 17.5632,-0.1799 z m -162.57271,23.1611 c -17.172,-5.6614 -20.9529,-14.7564 -20.9826,-50.4748 -0.019,-22.7498 0.671,-26.2768 5.5778,-28.5125 5.3778,-2.4503 14.0631,-0.3947 16.0915,3.8085 0.4122,0.8541 0.9888,12.5061 1.2813,25.8932 0.5262,24.0761 0.5576,24.3611 2.8928,26.25 2.8594,2.313 8.8449,2.5046 11.8778,0.3802 3.5145,-2.4616 4.2499,-7.6972 4.2558,-30.2974 l 0.01,-21.3269 2.9231,-2.9231 c 3.9414,-3.9414 11.4983,-4.1854 15.7711,-0.5091 l 2.8058,2.414 0,26.336 c 0,29.5596 -0.6405,33.1353 -7.3365,40.9581 -5.5159,6.4441 -9.9968,8.167 -22.1635,8.5218 -5.775,0.1684 -11.625,-0.065 -13,-0.518 z m 72.7658,-2.0424 -3.2658,-2.9165 -0.2966,-26.5835 -0.2966,-26.5835 -6.0534,0 c -5.593,0 -6.3215,-0.2681 -9.5782,-3.5248 -3.29,-3.29 -3.493,-3.8571 -3.0459,-8.5102 0.5612,-5.8404 2.6581,-8.5614 7.6706,-9.9538 4.7859,-1.3294 40.5722,-1.2855 45.4021,0.056 4.59571,1.2762 7.68881,5.7585 7.69431,11.1498 0,2.9237 -0.7501,4.4705 -3.5296,7.25 -3.24681,3.2467 -4.01231,3.5333 -9.43951,3.5333 l -5.9061,0 -0.3106,26.5836 -0.3105,26.5835 -3.2658,2.9165 c -4.5999,4.1078 -10.8686,4.1078 -15.4684,-1e-4 z"
               id="path4211"
               inkscape:connector-curvature="0" />
            <path
               id="path4267"
               d="m 499.74172,818.16945 c -9.2114,-4.0068 -8.3748,-17.3894 1.2865,-20.5779 6.7331,-2.2221 14.388,3.3839 14.388,10.537 0,4.1503 -2.8439,8.5368 -6.5343,10.0788 -4.1376,1.7288 -5.0877,1.7248 -9.1402,-0.038 z"
               style="fill:#0084c8"
               inkscape:connector-curvature="0" />
          </g>
        </g>
      </g>
    </g>
  </g>
</svg>
